HIERARCHY
ROOT SpineBase
{
  OFFSET 0.000000 0.000000 0.000000
  CHANNELS 6 Xposition Yposition Zposition Zrotation Xrotation Yrotation
  JOINT SpineMid
  {
    OFFSET 0.000000 31.639862 0.000000
    CHANNELS 3 Zrotation Xrotation Yrotation
    JOINT SpineShoulder
    {
      OFFSET -0.175867 23.602547 -1.078810
      CHANNELS 3 Zrotation Xrotation Yrotation
      JOINT Neck
      {
        OFFSET -0.073120 7.824735 -0.753904
        CHANNELS 3 Zrotation Xrotation Yrotation
        JOINT Head
        {
          OFFSET -6.291813 13.187232 1.168088
          CHANNELS 3 Zrotation Xrotation Yrotation
          End Site
          {
            OFFSET 0 0 0
          }
        }
      }
      JOINT ShoulderLeft
      {
        OFFSET -11.105849 -6.700479 15.002206
        CHANNELS 3 Zrotation Xrotation Yrotation
        JOINT ElbowLeft
        {
          OFFSET -0.525314 -28.632594 -1.629517
          CHANNELS 3 Zrotation Xrotation Yrotation
          JOINT WristLeft
          {
            OFFSET -1.279472 -21.192945 -2.794358
            CHANNELS 3 Zrotation Xrotation Yrotation
            JOINT HandLeft
            {
              OFFSET -0.305864 -4.965587 -2.686768
              CHANNELS 3 Zrotation Xrotation Yrotation
              JOINT HandTipLeft
              {
                OFFSET 0.740802 -5.202325 -0.294128
                CHANNELS 3 Zrotation Xrotation Yrotation
                End Site
                {
                  OFFSET 0 0 0
                }
              }
              JOINT ThumbLeft
              {
                OFFSET -2.601355 -0.010332 -1.010112
                CHANNELS 3 Zrotation Xrotation Yrotation
                End Site
                {
                  OFFSET 0 0 0
                }
              }
            }
          }
        }
      }
      JOINT ShoulderRight
      {
        OFFSET 11.769109 -3.276093 -8.705783
        CHANNELS 3 Zrotation Xrotation Yrotation
        JOINT ElbowRight
        {
          OFFSET 6.244150 -20.860693 -8.950577
          CHANNELS 3 Zrotation Xrotation Yrotation
          JOINT WristRight
          {
            OFFSET -1.296343 -23.952164 -4.608704
            CHANNELS 3 Zrotation Xrotation Yrotation
            JOINT HandRight
            {
              OFFSET -2.736781 -7.502816 -0.887088
              CHANNELS 3 Zrotation Xrotation Yrotation
              JOINT HandTipRight
              {
                OFFSET -0.559843 -6.334526 -0.566159
                CHANNELS 3 Zrotation Xrotation Yrotation
                End Site
                {
                  OFFSET 0 0 0
                }
              }
              JOINT ThumbRight
              {
                OFFSET -3.400197 0.507803 -0.274144
                CHANNELS 3 Zrotation Xrotation Yrotation
                End Site
                {
                  OFFSET 0 0 0
                }
              }
            }
          }
        }
      }
    }
  }
  JOINT HipLeft
  {
    OFFSET -5.352893 -0.512820 1.390223
    CHANNELS 3 Zrotation Xrotation Yrotation
    JOINT KneeLeft
    {
      OFFSET 4.519240 -35.862184 3.222760
      CHANNELS 3 Zrotation Xrotation Yrotation
      JOINT AnkleLeft
      {
        OFFSET 5.280202 -26.402892 3.425042
        CHANNELS 3 Zrotation Xrotation Yrotation
        JOINT FootLeft
        {
          OFFSET 9.341244 -1.977516 -12.278280
          CHANNELS 3 Zrotation Xrotation Yrotation
          End Site
          {
            OFFSET 0 0 0
          }
        }
      }
    }
  }
  JOINT HipRight
  {
    OFFSET 4.447150 2.122920 -8.693522
    CHANNELS 3 Zrotation Xrotation Yrotation
    JOINT KneeRight
    {
      OFFSET 6.970773 -32.052668 -1.811680
      CHANNELS 3 Zrotation Xrotation Yrotation
      JOINT AnkleRight
      {
        OFFSET 7.899208 -32.618891 3.338117
        CHANNELS 3 Zrotation Xrotation Yrotation
        JOINT FootRight
        {
          OFFSET -8.599834 -3.977085 -12.413990
          CHANNELS 3 Zrotation Xrotation Yrotation
          End Site
          {
            OFFSET 0 0 0
          }
        }
      }
    }
  }
}
MOTION
Frames: 8
Frame Time: 0.033333
37.783182 72.028592 347.925456 -0.000000 0.000000 45.817440 0.000000 -0.000000 -45.817440 -0.000000 0.000000 0.000000 -0.000000 0.000000 0.000000 0.000000 0.000000 0.000000 -0.000000 0.000000 0.000000 -0.000000 0.000000 0.000000 -0.000000 0.000000 0.000000 -0.000000 0.000000 0.000000 0.000000 0.000000 0.000000 0.000000 0.000000 0.000000 -0.000000 0.000000 0.000000 -0.000000 0.000000 0.000000 -0.000000 0.000000 0.000000 -0.000000 0.000000 0.000000 0.000000 0.000000 0.000000 0.000000 0.000000 0.000000 0.000000 -0.000000 -45.817440 -0.000000 0.000000 0.000000 -0.000000 0.000000 0.000000 0.000000 0.000000 0.000000 0.000000 -0.000000 -45.817440 -0.000000 0.000000 0.000000 -0.000000 0.000000 0.000000 0.000000 0.000000 0.000000
37.570724 71.854402 348.219940 -0.204854 -0.721297 46.385129 0.663533 0.349229 -46.388441 -0.000000 0.000000 0.000000 1.593570 0.433191 0.059083 0.000000 0.000000 0.000000 -0.000000 0.000000 0.000000 -0.000000 0.000000 0.000000 4.352419 -7.244785 -1.695535 -1.813821 20.164219 3.254906 0.000000 0.000000 0.000000 0.000000 0.000000 0.000000 -0.000000 0.000000 0.000000 0.478312 -1.100504 -0.027935 -3.394101 -3.984281 2.155413 5.336125 1.930582 -2.409775 0.000000 0.000000 0.000000 0.000000 0.000000 0.000000 0.663533 0.349229 -46.388441 0.683101 1.254165 0.332038 -0.690521 -1.250096 -0.347048 0.000000 0.000000 0.000000 1.537679 0.462154 -46.269665 -0.522718 -0.709665 -0.128203 5.188987 -8.573951 4.123603 0.000000 0.000000 0.000000
37.394832 71.697140 348.487431 -0.348615 -1.317917 46.991594 0.450642 0.096949 -47.009492 0.047654 -0.080453 -0.004004 3.116762 1.919594 0.102654 0.000000 0.000000 0.000000 0.064181 1.002724 0.015005 -0.000000 0.000000 0.000000 8.795922 -14.864891 -2.917285 -5.749181 39.323783 6.609335 0.000000 0.000000 0.000000 0.000000 0.000000 0.000000 0.064181 1.002724 0.015005 0.743272 -2.006961 -0.021445 -5.747435 -7.538019 3.862580 8.936094 3.631465 -4.737556 0.000000 0.000000 0.000000 0.000000 0.000000 0.000000 1.201583 0.643951 -47.002356 1.328363 2.453123 0.634833 -0.622363 -1.459827 -0.505646 0.000000 0.000000 0.000000 2.814806 0.848113 -46.790750 -0.956038 -1.315248 -0.243586 12.887026 -18.748114 10.969439 0.000000 0.000000 0.000000
37.255504 71.556808 348.727930 -0.432321 -1.792469 47.632401 0.618775 0.141966 -47.657448 0.076144 -0.081421 -0.002701 4.412958 2.771112 0.161435 0.000000 0.000000 0.000000 0.043639 1.321056 0.016065 -0.806665 0.770251 0.065197 13.987766 -22.982694 -3.430073 -12.592377 55.900022 11.652081 0.000000 0.000000 0.000000 0.000000 0.000000 0.000000 0.043639 1.321056 0.016065 0.807857 -2.736857 0.012067 -7.148551 -10.568471 5.181651 10.910705 5.231577 -6.685373 0.000000 0.000000 0.000000 0.000000 0.000000 0.000000 1.615828 0.888310 -47.651691 1.910906 3.546531 0.898820 -0.220443 -1.141362 -0.325012 0.000000 0.000000 0.000000 3.833502 1.164338 -47.368398 -1.299762 -1.817653 -0.343640 22.438969 -27.763047 20.235336 0.000000 0.000000 0.000000
37.152742 71.433405 348.941436 -0.456796 -2.147226 48.300743 0.750733 0.186547 -48.329847 0.107687 -0.057187 0.000821 5.525956 3.552082 0.241041 0.000000 0.000000 0.000000 -0.571103 0.839926 0.069125 -0.447702 1.627386 0.048273 18.291467 -29.644253 -3.415007 -25.037813 68.960988 21.759333 0.000000 0.000000 0.000000 0.000000 0.000000 0.000000 -0.011482 1.519772 0.013266 0.680191 -3.303917 0.068002 -7.685323 -13.055764 6.172701 11.386084 6.852461 -8.075864 0.000000 0.000000 0.000000 0.000000 0.000000 0.000000 1.105610 0.624758 -48.446424 2.590284 5.404602 1.209937 0.689328 -0.048772 0.156853 0.000000 0.000000 0.000000 4.595202 1.418993 -47.989916 -1.553725 -2.217747 -0.426345 30.380681 -32.856862 28.707848 0.000000 0.000000 0.000000
37.086545 71.326931 349.127950 -0.422660 -2.384060 48.987767 0.847637 0.232234 -49.017036 0.142308 -0.008170 0.006548 6.450370 4.263408 0.351158 0.000000 0.000000 0.000000 -0.736299 0.811398 0.070660 -0.546201 1.880228 0.062420 22.124727 -35.051334 -2.984736 -50.674124 77.575552 45.005808 0.000000 0.000000 0.000000 0.000000 0.000000 0.000000 -0.100973 1.600205 0.006645 0.364094 -3.718425 0.144006 -7.426569 -15.018252 6.884066 10.466554 8.571332 -8.807601 0.000000 0.000000 0.000000 0.000000 0.000000 0.000000 1.183710 0.746801 -49.148472 3.016730 6.274165 1.385557 2.108254 1.868106 0.918004 0.000000 0.000000 0.000000 5.100648 1.621602 -48.642364 -0.828274 -2.477345 -0.349493 31.793107 -33.914407 32.343829 0.000000 0.000000 0.000000
37.099710 71.222188 349.234728 -0.277809 -2.484557 49.665233 0.882718 0.321907 -49.688403 0.208719 0.115230 0.017400 7.111694 4.825005 0.508986 0.000000 0.000000 0.000000 -0.906936 0.643577 0.057094 -0.663777 2.023492 0.077640 25.398793 -36.222985 -3.423207 -87.092265 80.408146 79.497130 0.000000 0.000000 0.000000 0.000000 0.000000 0.000000 -1.186016 0.900985 0.235802 0.556830 -3.012280 0.028968 -6.031987 -16.798380 7.253596 6.980765 9.694504 -8.329340 0.000000 0.000000 0.000000 0.000000 0.000000 0.000000 1.201498 0.945294 -49.819059 2.451083 5.193269 1.156706 6.903049 9.483398 3.216735 0.000000 0.000000 0.000000 5.226897 1.841312 -49.298008 -0.746631 -2.640962 -0.372283 24.666214 -29.718902 27.876304 0.000000 0.000000 0.000000
37.129051 71.148774 349.342684 -0.100108 -2.469819 50.466929 0.882450 0.374967 -50.480715 0.255405 0.221778 0.028162 7.739432 5.610514 0.772724 0.000000 0.000000 0.000000 -1.097505 0.433618 0.041062 -0.757553 2.151500 0.090508 26.765779 -39.442110 -2.530235 -128.023432 78.997462 119.359544 0.000000 0.000000 0.000000 0.000000 0.000000 0.000000 -1.907691 0.610982 0.424106 0.397256 -3.034390 -0.044871 -3.668239 -17.039326 7.263754 3.569233 11.846217 -7.475885 0.000000 0.000000 0.000000 0.000000 0.000000 0.000000 1.171216 1.102124 -50.604050 3.505620 6.845372 1.530098 7.339119 9.975373 3.269775 0.000000 0.000000 0.000000 5.073990 1.954912 -50.096954 -0.536314 -2.484011 -0.318999 13.661074 -21.444157 19.860188 0.000000 0.000000 0.000000
